<svg width="48" height="48" viewBox="0 0 48 48" fill="none" xmlns="http://www.w3.org/2000/svg">
<path fill-rule="evenodd" clip-rule="evenodd" d="M24 48C37.2548 48 48 37.2548 48 24C48 10.7452 37.2548 0 24 0C10.7452 0 0 10.7452 0 24C0 37.2548 10.7452 48 24 48Z" fill="#2196F3"/>
<path d="M40 14C43.3137 14 46 11.3137 46 8C46 4.68629 43.3137 2 40 2C36.6863 2 34 4.68629 34 8C34 11.3137 36.6863 14 40 14Z" fill="#FF6A67" stroke="white" stroke-width="2"/>
<mask id="mask0_3_275" style="mask-type:alpha" maskUnits="userSpaceOnUse" x="12" y="11" width="24" height="24">
<path fill-rule="evenodd" clip-rule="evenodd" d="M12 11H36V35H12V11Z" fill="white"/>
</mask>
<g mask="url(#mask0_3_275)">
<path fill-rule="evenodd" clip-rule="evenodd" d="M21.25 18.5V22.24C20.04 21.43 19.25 20.06 19.25 18.5C19.25 16.01 21.26 14 23.75 14C26.24 14 28.25 16.01 28.25 18.5C28.25 20.06 27.46 21.43 26.25 22.24V18.5C26.25 17.12 25.13 16 23.75 16C22.37 16 21.25 17.12 21.25 18.5ZM26.55 24.61L31.09 26.87C31.62 27.09 32 27.63 32 28.25C32 28.31 31.99 28.38 31.98 28.45L31.23 33.72C31.12 34.45 30.54 35 29.79 35H23C22.59 35 22.21 34.83 21.94 34.56L17 29.62L17.79 28.82C17.99 28.62 18.27 28.49 18.58 28.49C18.64 28.49 18.6912 28.4989 18.7423 28.5078C18.7678 28.5122 18.7933 28.5167 18.82 28.52L22.25 29.24V18.5C22.25 17.67 22.92 17 23.75 17C24.58 17 25.25 17.67 25.25 18.5V24.5H26.01C26.2 24.5 26.38 24.54 26.55 24.61Z" fill="white"/>
</g>
</svg>
