<svg width="48" height="48" viewBox="0 0 48 48" fill="none" xmlns="http://www.w3.org/2000/svg">
<path fill-rule="evenodd" clip-rule="evenodd" d="M24 48C37.2548 48 48 37.2548 48 24C48 10.7452 37.2548 0 24 0C10.7452 0 0 10.7452 0 24C0 37.2548 10.7452 48 24 48Z" fill="#2196F3"/>
<path d="M40 14C43.3137 14 46 11.3137 46 8C46 4.68629 43.3137 2 40 2C36.6863 2 34 4.68629 34 8C34 11.3137 36.6863 14 40 14Z" fill="#8BC34A" stroke="white" stroke-width="2"/>
<path fill-rule="evenodd" clip-rule="evenodd" d="M13 14V16H15L18.595 23.585L17.245 26.035C17.09 26.325 17 26.65 17 27C17 28.105 17.895 29 19 29H31V27H19.425C19.285 27 19.175 26.89 19.175 26.75C19.175 26.705 19.185 26.665 19.205 26.63L20.1 25H27.55C28.3 25 28.955 24.585 29.3 23.97L32.875 17.48C32.955 17.34 33 17.175 33 17C33 16.445 32.55 16 32 16H17.215L16.265 14H13ZM19 30C17.895 30 17.01 30.895 17.01 32C17.01 33.105 17.895 34 19 34C20.105 34 21 33.105 21 32C21 30.895 20.105 30 19 30ZM27.01 32C27.01 30.895 27.895 30 29 30C30.105 30 31 30.895 31 32C31 33.105 30.105 34 29 34C27.895 34 27.01 33.105 27.01 32Z" fill="white"/>
</svg>

