
<svg width="48" height="48" viewBox="0 0 48 48" fill="none" xmlns="http://www.w3.org/2000/svg">
<path fill-rule="evenodd" clip-rule="evenodd" d="M24 48C37.2548 48 48 37.2548 48 24C48 10.7452 37.2548 0 24 0C10.7452 0 0 10.7452 0 24C0 37.2548 10.7452 48 24 48Z" fill="#2196F3"/>
<path d="M31.8719 16.597C31.6836 16.2287 31.3178 16 30.9156 16H17.0828C16.6814 16 16.3148 16.2287 16.1265 16.597C15.9367 16.969 15.9621 17.4145 16.1919 17.7602L21.7527 26.1453C21.7948 26.209 21.8174 26.2825 21.8174 26.359V32.8757C21.8174 33.496 22.3068 34 22.9083 34C23.1039 34 23.2967 33.9445 23.4676 33.8388L25.653 32.4865C25.9788 32.284 26.181 31.915 26.181 31.5235V26.359C26.181 26.2825 26.2036 26.209 26.2465 26.1445L31.8065 17.761C32.0363 17.4153 32.0618 16.969 31.8719 16.597Z" fill="white"/>
</svg>
